<svg width="40" height="40" viewBox="0 0 40 40" fill="none" xmlns="http://www.w3.org/2000/svg">
<path d="M16.52 21.8458C15.48 21.8458 14.632 20.9008 14.632 19.7448C14.632 18.5888 15.459 17.6428 16.521 17.6428C17.571 17.6428 18.431 18.5878 18.41 19.7448C18.41 20.9008 17.571 21.8458 16.52 21.8458ZM23.494 21.8448C22.454 21.8448 21.604 20.8998 21.604 19.7438C21.604 18.5878 22.433 17.6418 23.494 17.6418C24.544 17.6418 25.404 18.5868 25.384 19.7438C25.384 20.8998 24.555 21.8448 23.494 21.8448ZM18.125 12.3208L17.817 11.7578L17.183 11.8638C15.7463 12.1039 14.348 12.5344 13.025 13.1438L12.797 13.2488L12.655 13.4588C10.042 17.3118 9.32502 21.1068 9.68002 24.8338L9.71902 25.2408L10.049 25.4808C11.5861 26.6089 13.303 27.4687 15.127 28.0238L15.917 28.2658L17.03 25.5498C18.94 26.0218 21.06 26.0218 22.969 25.5498L24.076 28.2668L24.866 28.0248C26.6916 27.4711 28.4095 26.6104 29.946 25.4798L30.273 25.2418L30.313 24.8398C30.749 20.5198 29.616 16.7568 27.355 13.4558L27.213 13.2478L26.985 13.1438C25.6624 12.5369 24.2658 12.1066 22.831 11.8638L22.213 11.7608L21.899 12.3028C21.811 12.4528 21.722 12.6228 21.636 12.7958C20.5512 12.6846 19.4578 12.6846 18.373 12.7958C18.288 12.6258 18.203 12.4618 18.125 12.3208ZM14.715 24.6098C14.912 24.7238 15.12 24.8358 15.325 24.9378L14.876 26.0338C13.6615 25.5913 12.5093 24.9937 11.448 24.2558C11.223 21.1178 11.861 17.9508 14.012 14.6858C14.9199 14.2863 15.8661 13.9804 16.836 13.7728C16.896 13.8978 16.952 14.0208 16.998 14.1288L17.271 14.7718L17.963 14.6708C19.3191 14.472 20.6969 14.472 22.053 14.6708L22.743 14.7708L23.015 14.1288C23.062 14.0168 23.117 13.8948 23.175 13.7728C24.152 13.9828 25.098 14.2928 26.003 14.6878C27.878 17.5078 28.824 20.6538 28.549 24.2548C27.4872 24.9932 26.3343 25.5912 25.119 26.0338L24.674 24.9388C24.88 24.8368 25.088 24.7248 25.287 24.6098C25.777 24.3278 26.304 23.9758 26.64 23.6398L25.36 22.3598C25.197 22.5238 24.837 22.7798 24.383 23.0418C23.939 23.2978 23.498 23.5048 23.216 23.5978C21.213 24.2608 18.788 24.2608 16.784 23.5978C16.503 23.5048 16.062 23.2978 15.618 23.0418C15.164 22.7808 14.804 22.5238 14.64 22.3598L13.36 23.6398C13.697 23.9758 14.225 24.3278 14.715 24.6098Z" fill="#358BB9"/>
</svg>
