<svg width="38" height="38" viewBox="0 0 38 38" fill="none" xmlns="http://www.w3.org/2000/svg">
<g filter="url(#filter0_d_3150_1260)">
<path d="M18.162 12.2666C18.4088 12.0924 18.7038 11.9993 19.006 12C19.3081 12.0008 19.6026 12.0954 19.8486 12.2708C20.0979 12.4528 20.287 12.7048 20.3907 12.996L21.0169 14.9181C21.1776 15.3999 21.4481 15.8377 21.8072 16.1971C22.1663 16.5564 22.604 16.8274 23.0859 16.9886L25.0345 17.6186C25.3226 17.7229 25.5707 17.9148 25.7438 18.1674C25.917 18.42 26.0064 18.7206 25.9996 19.0267C25.9928 19.3328 25.8901 19.6291 25.7059 19.8738C25.5217 20.1184 25.2653 20.2992 24.9728 20.3905L23.0467 21.0177C22.5643 21.1781 22.1259 21.4484 21.7661 21.8073C21.4063 22.1661 21.1349 22.6037 20.9735 23.0854L20.3403 25.0285C20.2383 25.3148 20.0496 25.5622 19.8004 25.7363C19.5512 25.9104 19.2539 26.0026 18.9499 25.9999C18.6458 25.9973 18.3502 25.9001 18.104 25.7217C17.8579 25.5433 17.6734 25.2927 17.5764 25.0047L16.9363 23.0448C16.7756 22.576 16.5105 22.1498 16.1611 21.7982C15.8117 21.4465 15.387 21.1787 14.9191 21.0149L12.9719 20.3891C12.6856 20.287 12.4381 20.0983 12.264 19.8493C12.0898 19.6003 11.9976 19.3032 12 18.9994C12.0025 18.6956 12.0996 18.4001 12.2777 18.1539C12.4559 17.9077 12.7064 17.7231 12.9943 17.6256L14.9191 17.0026C15.4038 16.8419 15.8441 16.5696 16.2044 16.2078C16.5648 15.846 16.8351 15.4048 16.9937 14.9195L17.6269 12.9722C17.7277 12.6866 17.9154 12.4402 18.162 12.2666Z" fill="#358BB9"/>
</g>
<defs>
<filter id="filter0_d_3150_1260" x="0" y="0" width="38" height="38" filterUnits="userSpaceOnUse" color-interpolation-filters="sRGB">
<feFlood flood-opacity="0" result="BackgroundImageFix"/>
<feColorMatrix in="SourceAlpha" type="matrix" values="0 0 0 0 0 0 0 0 0 0 0 0 0 0 0 0 0 0 127 0" result="hardAlpha"/>
<feOffset/>
<feGaussianBlur stdDeviation="6"/>
<feComposite in2="hardAlpha" operator="out"/>
<feColorMatrix type="matrix" values="0 0 0 0 0.532812 0 0 0 0 0.184062 0 0 0 0 0.590937 0 0 0 0.35 0"/>
<feBlend mode="normal" in2="BackgroundImageFix" result="effect1_dropShadow_3150_1260"/>
<feBlend mode="normal" in="SourceGraphic" in2="effect1_dropShadow_3150_1260" result="shape"/>
</filter>
</defs>
</svg>
